<svg width="33" height="25" viewBox="0 0 33 25" fill="none" xmlns="http://www.w3.org/2000/svg">
<path d="M27.9359 2.07236C25.8326 1.11316 23.5771 0.406455 21.2189 0.0016979C21.1759 -0.00611378 21.133 0.013408 21.1109 0.0524526C20.8208 0.56523 20.4995 1.23419 20.2745 1.75999C17.7381 1.38257 15.2146 1.38257 12.7302 1.75999C12.5051 1.2225 12.1722 0.56523 11.8808 0.0524526C11.8587 0.0147108 11.8158 -0.00481107 11.7728 0.0016979C9.41587 0.405162 7.1604 1.11186 5.05579 2.07236C5.03757 2.08017 5.02195 2.0932 5.01158 2.11011C0.733414 8.46266 -0.438557 14.6591 0.136373 20.7787C0.138974 20.8086 0.155884 20.8372 0.179297 20.8554C3.00191 22.9157 5.7361 24.1664 8.41951 24.9954C8.46245 25.0085 8.50796 24.9929 8.53529 24.9577C9.17005 24.0962 9.73588 23.1877 10.221 22.2324C10.2497 22.1764 10.2223 22.1101 10.1638 22.0879C9.26631 21.7496 8.4117 21.337 7.58963 20.8685C7.5246 20.8307 7.5194 20.7383 7.57922 20.694C7.75221 20.5652 7.92525 20.4311 8.09044 20.2958C8.12032 20.2711 8.16197 20.2658 8.19711 20.2815C13.5978 22.7322 19.4446 22.7322 24.7816 20.2815C24.8167 20.2645 24.8583 20.2698 24.8895 20.2945C25.0548 20.4298 25.2278 20.5652 25.4021 20.694C25.4619 20.7383 25.458 20.8307 25.3929 20.8685C24.5709 21.3461 23.7163 21.7496 22.8175 22.0866C22.7589 22.1088 22.7329 22.1764 22.7615 22.2324C23.2571 23.1864 23.8229 24.0948 24.446 24.9564C24.472 24.9929 24.5188 25.0085 24.5618 24.9954C27.2582 24.1664 29.9924 22.9157 32.815 20.8554C32.8397 20.8372 32.8553 20.8099 32.8579 20.7799C33.546 13.705 31.7054 7.55944 27.9788 2.1114C27.9697 2.0932 27.9541 2.08017 27.9359 2.07236ZM11.0275 17.0525C9.40156 17.0525 8.06181 15.5688 8.06181 13.7467C8.06181 11.9246 9.37558 10.4409 11.0275 10.4409C12.6925 10.4409 14.0192 11.9376 13.9932 13.7467C13.9932 15.5688 12.6794 17.0525 11.0275 17.0525ZM21.9928 17.0525C20.3669 17.0525 19.0271 15.5688 19.0271 13.7467C19.0271 11.9246 20.3408 10.4409 21.9928 10.4409C23.6577 10.4409 24.9845 11.9376 24.9585 13.7467C24.9585 15.5688 23.6577 17.0525 21.9928 17.0525Z" fill="white"/>
</svg>
