<svg width="50" height="50" viewBox="0 0 50 50" fill="none" xmlns="http://www.w3.org/2000/svg">
<g filter="url(#filter0_d_2_8015)">
<g clip-path="url(#clip0_2_8015)">
<path d="M25 8.60156C30.3438 8.60156 30.9766 8.625 33.0781 8.71875C35.0313 8.80469 36.0859 9.13281 36.7891 9.40625C37.7188 9.76563 38.3906 10.2031 39.0859 10.8984C39.7891 11.6016 40.2188 12.2656 40.5781 13.1953C40.8516 13.8984 41.1797 14.9609 41.2656 16.9063C41.3594 19.0156 41.3828 19.6484 41.3828 24.9844C41.3828 30.3281 41.3594 30.9609 41.2656 33.0625C41.1797 35.0156 40.8516 36.0703 40.5781 36.7734C40.2188 37.7031 39.7813 38.375 39.0859 39.0703C38.3828 39.7734 37.7188 40.2031 36.7891 40.5625C36.0859 40.8359 35.0234 41.1641 33.0781 41.25C30.9688 41.3438 30.3359 41.3672 25 41.3672C19.6563 41.3672 19.0234 41.3438 16.9219 41.25C14.9688 41.1641 13.9141 40.8359 13.2109 40.5625C12.2813 40.2031 11.6094 39.7656 10.9141 39.0703C10.2109 38.3672 9.78125 37.7031 9.42188 36.7734C9.14844 36.0703 8.82031 35.0078 8.73438 33.0625C8.64063 30.9531 8.61719 30.3203 8.61719 24.9844C8.61719 19.6406 8.64063 19.0078 8.73438 16.9063C8.82031 14.9531 9.14844 13.8984 9.42188 13.1953C9.78125 12.2656 10.2188 11.5938 10.9141 10.8984C11.6172 10.1953 12.2813 9.76563 13.2109 9.40625C13.9141 9.13281 14.9766 8.80469 16.9219 8.71875C19.0234 8.625 19.6563 8.60156 25 8.60156ZM25 5C19.5703 5 18.8906 5.02344 16.7578 5.11719C14.6328 5.21094 13.1719 5.55469 11.9063 6.04687C10.5859 6.5625 9.46875 7.24219 8.35938 8.35938C7.24219 9.46875 6.5625 10.5859 6.04688 11.8984C5.55469 13.1719 5.21094 14.625 5.11719 16.75C5.02344 18.8906 5 19.5703 5 25C5 30.4297 5.02344 31.1094 5.11719 33.2422C5.21094 35.3672 5.55469 36.8281 6.04688 38.0938C6.5625 39.4141 7.24219 40.5313 8.35938 41.6406C9.46875 42.75 10.5859 43.4375 11.8984 43.9453C13.1719 44.4375 14.625 44.7813 16.75 44.875C18.8828 44.9688 19.5625 44.9922 24.9922 44.9922C30.4219 44.9922 31.1016 44.9688 33.2344 44.875C35.3594 44.7813 36.8203 44.4375 38.0859 43.9453C39.3984 43.4375 40.5156 42.75 41.625 41.6406C42.7344 40.5313 43.4219 39.4141 43.9297 38.1016C44.4219 36.8281 44.7656 35.375 44.8594 33.25C44.9531 31.1172 44.9766 30.4375 44.9766 25.0078C44.9766 19.5781 44.9531 18.8984 44.8594 16.7656C44.7656 14.6406 44.4219 13.1797 43.9297 11.9141C43.4375 10.5859 42.7578 9.46875 41.6406 8.35938C40.5313 7.25 39.4141 6.5625 38.1016 6.05469C36.8281 5.5625 35.375 5.21875 33.25 5.125C31.1094 5.02344 30.4297 5 25 5Z" fill="white"/>
<path d="M25 14.7266C19.3281 14.7266 14.7266 19.3281 14.7266 25C14.7266 30.6719 19.3281 35.2734 25 35.2734C30.6719 35.2734 35.2734 30.6719 35.2734 25C35.2734 19.3281 30.6719 14.7266 25 14.7266ZM25 31.6641C21.3203 31.6641 18.3359 28.6797 18.3359 25C18.3359 21.3203 21.3203 18.3359 25 18.3359C28.6797 18.3359 31.6641 21.3203 31.6641 25C31.6641 28.6797 28.6797 31.6641 25 31.6641Z" fill="white"/>
<path d="M38.0781 14.3202C38.0781 15.6483 37 16.7186 35.6797 16.7186C34.3516 16.7186 33.2812 15.6405 33.2812 14.3202C33.2812 12.9921 34.3594 11.9218 35.6797 11.9218C37 11.9218 38.0781 12.9999 38.0781 14.3202Z" fill="white"/>
</g>
</g>
<defs>
<filter id="filter0_d_2_8015" x="0" y="0" width="50" height="50" filterUnits="userSpaceOnUse" color-interpolation-filters="sRGB">
<feFlood flood-opacity="0" result="BackgroundImageFix"/>
<feColorMatrix in="SourceAlpha" type="matrix" values="0 0 0 0 0 0 0 0 0 0 0 0 0 0 0 0 0 0 127 0" result="hardAlpha"/>
<feOffset/>
<feGaussianBlur stdDeviation="2.5"/>
<feComposite in2="hardAlpha" operator="out"/>
<feColorMatrix type="matrix" values="0 0 0 0 0.32549 0 0 0 0 0.227451 0 0 0 0 0.278431 0 0 0 1 0"/>
<feBlend mode="normal" in2="BackgroundImageFix" result="effect1_dropShadow_2_8015"/>
<feBlend mode="normal" in="SourceGraphic" in2="effect1_dropShadow_2_8015" result="shape"/>
</filter>
<clipPath id="clip0_2_8015">
<rect width="40" height="40" fill="white" transform="translate(5 5)"/>
</clipPath>
</defs>
</svg>
